<svg width="513.597" height="513.597" xmlns="http://www.w3.org/2000/svg">

 <g>
  <title>background</title>
  <rect fill="none" id="canvas_background" height="402" width="582" y="-1" x="-1"/>
 </g>
 <g>
  <title>Layer 1</title>
  <g id="svg_1">
   <g id="svg_2">
    <path id="svg_3" fill="#cd5c5c" class="active-path" d="m189.955002,0.107c-104.301,-3.515 -189.955,79.988 -189.955,183.495c0,117.469 112.73,202.72 175.915,325.322c3.208,6.225 12.169,6.233 15.388,0.009c57.16,-110.317 154.854,-184.291 172.959,-290.569c18.746,-109.977 -62.809,-214.498 -174.307,-218.257zm-6.355,279.666c-53.113,0 -96.171,-43.059 -96.171,-96.171s43.059,-96.171 96.171,-96.171c53.113,0 96.172,43.059 96.172,96.171s-43.059,96.171 -96.172,96.171z"/>
   </g>
  </g>
 </g>
</svg>