<svg width="469.333" height="469.333" xmlns="http://www.w3.org/2000/svg">

 <g>
  <title>background</title>
  <rect fill="none" id="canvas_background" height="402" width="582" y="-1" x="-1"/>
 </g>
 <g>
  <title>Layer 1</title>
  <g id="svg_1">
   <g id="svg_2">
    <g id="svg_3">
     <g id="svg_4">
      <path id="svg_5" fill="#cd5c5c" class="active-path" d="m191.999999,128c23.573,0 42.667,-19.093 42.667,-42.667c0,-8 -2.24,-15.573 -6.08,-21.973l-36.587,-63.36l-36.587,63.36c-3.84,6.4 -6.08,13.973 -6.08,21.973c0,23.574 19.094,42.667 42.667,42.667z"/>
      <path id="svg_6" fill="#cd5c5c" class="active-path" d="m319.999999,192l0,0l-106.667,0l0,-42.667l-42.667,0l0,42.667l-106.666,0c-35.307,0 -64,28.693 -64,64l0,32.853c0,23.04 18.773,41.813 41.813,41.813c11.2,0 21.653,-4.373 29.547,-12.267l45.653,-45.547l45.547,45.44c15.787,15.787 43.307,15.787 59.093,0l45.653,-45.44l45.547,45.44c7.893,7.893 18.347,12.267 29.547,12.267c23.04,0 41.813,-18.773 41.813,-41.813l0,-32.746c-0.213,-35.307 -28.906,-64 -64.213,-64z"/>
      <path id="svg_7" fill="#cd5c5c" class="active-path" d="m290.026999,341.013l0,0l-22.933,-22.933l-23.04,22.933c-27.84,27.84 -76.48,27.84 -104.32,0l-22.934,-22.933l-23.04,22.933c-13.76,13.973 -32.213,21.653 -51.947,21.653c-15.467,0 -29.867,-4.907 -41.813,-13.12l0,98.454c0,11.733 9.6,21.333 21.333,21.333l341.333,0c11.733,0 21.333,-9.6 21.333,-21.333l0,-98.453c-11.947,8.213 -26.24,13.12 -41.813,13.12c-19.733,0 -38.186,-7.68 -52.159,-21.654z"/>
     </g>
    </g>
   </g>
  </g>
 </g>
</svg>